<mxfile host="65bd71144e">
    <diagram id="uuOkjQRdIl_oSMIFpfGY" name="Page-1">
        <mxGraphModel dx="1073" dy="840" grid="1" gridSize="10" guides="1" tooltips="1" connect="1" arrows="1" fold="1" page="1" pageScale="1" pageWidth="1100" pageHeight="850" math="0" shadow="0">
            <root>
                <mxCell id="0"/>
                <mxCell id="1" parent="0"/>
                <mxCell id="2" value="" style="shape=crossbar;whiteSpace=wrap;html=1;rounded=1;" vertex="1" parent="1">
                    <mxGeometry x="190" y="420" width="330" height="20" as="geometry"/>
                </mxCell>
                <mxCell id="11" value="0ms" style="text;html=1;align=center;verticalAlign=middle;resizable=0;points=[];autosize=1;strokeColor=none;fillColor=none;" vertex="1" parent="1">
                    <mxGeometry x="165" y="445" width="50" height="30" as="geometry"/>
                </mxCell>
                <mxCell id="13" value="100ms" style="text;html=1;align=center;verticalAlign=middle;resizable=0;points=[];autosize=1;strokeColor=none;fillColor=none;" vertex="1" parent="1">
                    <mxGeometry x="490" y="445" width="60" height="30" as="geometry"/>
                </mxCell>
                <mxCell id="14" value="200ms" style="text;html=1;align=center;verticalAlign=middle;resizable=0;points=[];autosize=1;strokeColor=none;fillColor=none;" vertex="1" parent="1">
                    <mxGeometry x="820" y="445" width="60" height="30" as="geometry"/>
                </mxCell>
                <mxCell id="26" style="edgeStyle=none;html=1;exitX=0.5;exitY=1;exitDx=0;exitDy=0;fontSize=17;" edge="1" parent="1" source="25">
                    <mxGeometry relative="1" as="geometry">
                        <mxPoint x="189.92592592592587" y="400" as="targetPoint"/>
                    </mxGeometry>
                </mxCell>
                <mxCell id="25" value="&lt;span style=&quot;&quot;&gt;initialSpeed = 0&lt;/span&gt;&lt;br style=&quot;&quot;&gt;&lt;span style=&quot;&quot;&gt;finalSpeed = 0&lt;/span&gt;" style="shape=ext;double=1;rounded=0;whiteSpace=wrap;html=1;fontSize=17;opacity=70;" vertex="1" parent="1">
                    <mxGeometry x="120" y="280" width="140" height="80" as="geometry"/>
                </mxCell>
                <mxCell id="27" value="" style="shape=crossbar;whiteSpace=wrap;html=1;rounded=1;" vertex="1" parent="1">
                    <mxGeometry x="520" y="420" width="330" height="20" as="geometry"/>
                </mxCell>
                <mxCell id="28" value="initialSpeed = 0&lt;br&gt;finalSpeed = newSpeed" style="shape=ext;double=1;rounded=0;whiteSpace=wrap;html=1;fontSize=17;opacity=70;" vertex="1" parent="1">
                    <mxGeometry x="420" y="280" width="200" height="80" as="geometry"/>
                </mxCell>
                <mxCell id="29" value="" style="shape=curlyBracket;whiteSpace=wrap;html=1;rounded=1;labelPosition=left;verticalLabelPosition=middle;align=right;verticalAlign=middle;fontSize=17;opacity=70;rotation=-90;" vertex="1" parent="1">
                    <mxGeometry x="346.25" y="318.75" width="20" height="332.5" as="geometry"/>
                </mxCell>
                <mxCell id="30" value="Retardo de 100ms&amp;nbsp;&lt;br&gt;mientras se espera el primer paquete&lt;br&gt;de datos" style="text;html=1;align=center;verticalAlign=middle;resizable=0;points=[];autosize=1;strokeColor=none;fillColor=none;fontSize=17;" vertex="1" parent="1">
                    <mxGeometry x="201.25" y="500" width="310" height="70" as="geometry"/>
                </mxCell>
                <mxCell id="31" value="" style="ellipse;shape=doubleEllipse;whiteSpace=wrap;html=1;aspect=fixed;fontSize=17;opacity=70;fillColor=#a20025;fontColor=#ffffff;strokeColor=#6F0000;" vertex="1" parent="1">
                    <mxGeometry x="580" y="420" width="20" height="20" as="geometry"/>
                </mxCell>
                <mxCell id="39" style="edgeStyle=none;html=1;exitX=0.5;exitY=1;exitDx=0;exitDy=0;entryX=0.5;entryY=0;entryDx=0;entryDy=0;fontSize=17;" edge="1" parent="1" source="33" target="31">
                    <mxGeometry relative="1" as="geometry">
                        <Array as="points">
                            <mxPoint x="775" y="390"/>
                            <mxPoint x="590" y="390"/>
                        </Array>
                    </mxGeometry>
                </mxCell>
                <mxCell id="33" value="Fotograma 1:&lt;br&gt;CÃ¡lculo de currentSpeed a partir de initialSpeed y finalSpeed&lt;br&gt;&amp;nbsp;" style="shape=ext;double=1;rounded=0;whiteSpace=wrap;html=1;fontSize=17;opacity=70;" vertex="1" parent="1">
                    <mxGeometry x="640" y="280" width="270" height="80" as="geometry"/>
                </mxCell>
            </root>
        </mxGraphModel>
    </diagram>
</mxfile>